<svg width="131" height="8" viewBox="0 0 131 8" fill="none" xmlns="http://www.w3.org/2000/svg">
<path id="Arrow 1" d="M130.354 4.35355C130.549 4.15829 130.549 3.84171 130.354 3.64645L127.172 0.464466C126.976 0.269204 126.66 0.269204 126.464 0.464466C126.269 0.659728 126.269 0.976311 126.464 1.17157L129.293 4L126.464 6.82843C126.269 7.02369 126.269 7.34027 126.464 7.53553C126.66 7.7308 126.976 7.7308 127.172 7.53553L130.354 4.35355ZM0 4.5H2.03125V3.5H0V4.5ZM6.09375 4.5H10.1562V3.5H6.09375V4.5ZM14.2188 4.5H18.2812V3.5H14.2188V4.5ZM22.3438 4.5H26.4062V3.5H22.3438V4.5ZM30.4688 4.5H34.5312V3.5H30.4688V4.5ZM38.5938 4.5H42.6562V3.5H38.5938V4.5ZM46.7188 4.5H50.7812V3.5H46.7188V4.5ZM54.8438 4.5H58.9062V3.5H54.8438V4.5ZM62.9688 4.5H67.0312V3.5H62.9688V4.5ZM71.0938 4.5H75.1562V3.5H71.0938V4.5ZM79.2188 4.5H83.2812V3.5H79.2188V4.5ZM87.3438 4.5H91.4062V3.5H87.3438V4.5ZM95.4688 4.5H99.5312V3.5H95.4688V4.5ZM103.594 4.5H107.656V3.5H103.594V4.5ZM111.719 4.5H115.781V3.5H111.719V4.5ZM119.844 4.5H123.906V3.5H119.844V4.5ZM127.969 4.5H130V3.5H127.969V4.5ZM130.354 4.35355C130.549 4.15829 130.549 3.84171 130.354 3.64645L127.172 0.464466C126.976 0.269204 126.66 0.269204 126.464 0.464466C126.269 0.659728 126.269 0.976311 126.464 1.17157L129.293 4L126.464 6.82843C126.269 7.02369 126.269 7.34027 126.464 7.53553C126.66 7.7308 126.976 7.7308 127.172 7.53553L130.354 4.35355ZM0 4.5H2.03125V3.5H0V4.5ZM6.09375 4.5H10.1562V3.5H6.09375V4.5ZM14.2188 4.5H18.2812V3.5H14.2188V4.5ZM22.3438 4.5H26.4062V3.5H22.3438V4.5ZM30.4688 4.5H34.5312V3.5H30.4688V4.5ZM38.5938 4.5H42.6562V3.5H38.5938V4.5ZM46.7188 4.5H50.7812V3.5H46.7188V4.5ZM54.8438 4.5H58.9062V3.5H54.8438V4.5ZM62.9688 4.5H67.0312V3.5H62.9688V4.5ZM71.0938 4.5H75.1562V3.5H71.0938V4.5ZM79.2188 4.5H83.2812V3.5H79.2188V4.5ZM87.3438 4.5H91.4062V3.5H87.3438V4.5ZM95.4688 4.5H99.5312V3.5H95.4688V4.5ZM103.594 4.5H107.656V3.5H103.594V4.5ZM111.719 4.5H115.781V3.5H111.719V4.5ZM119.844 4.5H123.906V3.5H119.844V4.5ZM127.969 4.5H130V3.5H127.969V4.5Z" fill="white"/>
</svg>
