<svg width="88" height="92" viewBox="0 0 88 92" fill="none" xmlns="http://www.w3.org/2000/svg">
<g id="solar:book-outline" filter="url(#filter0_d_56_593)">
<path id="Vector" d="M26.5833 25.6667C26.5833 24.9373 26.873 24.2378 27.3887 23.7221C27.9044 23.2064 28.6039 22.9167 29.3333 22.9167H58.6666C59.3959 22.9167 60.0954 23.2064 60.6111 23.7221C61.1269 24.2378 61.4166 24.9373 61.4166 25.6667C61.4166 26.396 61.1269 27.0955 60.6111 27.6112C60.0954 28.1269 59.3959 28.4167 58.6666 28.4167H29.3333C28.6039 28.4167 27.9044 28.1269 27.3887 27.6112C26.873 27.0955 26.5833 26.396 26.5833 25.6667ZM29.3333 35.75C28.6039 35.75 27.9044 36.0397 27.3887 36.5555C26.873 37.0712 26.5833 37.7707 26.5833 38.5C26.5833 39.2293 26.873 39.9288 27.3887 40.4445C27.9044 40.9603 28.6039 41.25 29.3333 41.25H47.6666C48.3959 41.25 49.0954 40.9603 49.6111 40.4445C50.1269 39.9288 50.4166 39.2293 50.4166 38.5C50.4166 37.7707 50.1269 37.0712 49.6111 36.5555C49.0954 36.0397 48.3959 35.75 47.6666 35.75H29.3333Z" fill="white"/>
<path id="Vector_2" fill-rule="evenodd" clip-rule="evenodd" d="M36.4651 4.58333C31.4527 4.58333 27.4084 4.58333 24.2294 5.01233C20.9294 5.45233 18.1501 6.40567 15.9427 8.60933C13.7354 10.8167 12.7894 13.596 12.3457 16.896C11.9167 20.075 11.9167 24.1193 11.9167 29.1317V58.8683C11.9167 63.8807 11.9167 67.925 12.3457 71.104C12.7857 74.404 13.7391 77.1833 15.9427 79.3907C18.1501 81.598 20.9294 82.544 24.2294 82.9913C27.4084 83.4167 31.4527 83.4167 36.4651 83.4167H51.5351C56.5474 83.4167 60.5918 83.4167 63.7708 82.9913C67.0708 82.544 69.8501 81.598 72.0574 79.3907C74.2648 77.1833 75.2108 74.404 75.6581 71.104C76.0834 67.925 76.0834 63.8807 76.0834 58.8683V29.1317C76.0834 24.1193 76.0834 20.075 75.6581 16.896C75.2108 13.596 74.2648 10.8167 72.0574 8.60933C69.8501 6.402 67.0708 5.456 63.7708 5.01233C60.5918 4.58333 56.5474 4.58333 51.5351 4.58333H36.4651ZM19.8367 12.4997C20.8524 11.484 22.2751 10.824 24.9701 10.461C27.7347 10.0907 31.4088 10.0833 36.6704 10.0833H51.3371C56.5988 10.0833 60.2691 10.0907 63.0411 10.461C65.7324 10.824 67.1551 11.4877 68.1707 12.4997C69.1864 13.5153 69.8464 14.938 70.2094 17.633C70.5798 20.3977 70.5871 24.0717 70.5871 29.3333V55.9167H28.5341C25.5347 55.9167 23.4887 55.9167 21.7324 56.386C20.1879 56.7996 18.7275 57.4796 17.4167 58.3953V29.3333C17.4167 24.0717 17.4241 20.3977 17.7944 17.6293C18.1574 14.938 18.8247 13.5153 19.8367 12.4997ZM17.5157 66.913C17.5707 68.211 17.6587 69.3513 17.7944 70.3707C18.1574 73.062 18.8211 74.4847 19.8331 75.5003C20.8487 76.516 22.2714 77.176 24.9664 77.539C27.7311 77.9093 31.4051 77.9167 36.6667 77.9167H51.3334C56.5951 77.9167 60.2654 77.9093 63.0374 77.539C65.7288 77.176 67.1514 76.5123 68.1671 75.5003C69.1828 74.4847 69.8428 73.062 70.2057 70.367C70.5101 68.112 70.5688 65.252 70.5798 61.4167H28.9594C25.3734 61.4167 24.1194 61.4387 23.1551 61.699C21.8627 62.0456 20.6741 62.7014 19.6917 63.6097C18.7092 64.5181 17.9625 65.6518 17.5157 66.913Z" fill="white"/>
</g>
<defs>
<filter id="filter0_d_56_593" x="-4" y="0" width="96" height="96" filterUnits="userSpaceOnUse" color-interpolation-filters="sRGB">
<feFlood flood-opacity="0" result="BackgroundImageFix"/>
<feColorMatrix in="SourceAlpha" type="matrix" values="0 0 0 0 0 0 0 0 0 0 0 0 0 0 0 0 0 0 127 0" result="hardAlpha"/>
<feOffset dy="4"/>
<feGaussianBlur stdDeviation="2"/>
<feComposite in2="hardAlpha" operator="out"/>
<feColorMatrix type="matrix" values="0 0 0 0 0 0 0 0 0 0 0 0 0 0 0 0 0 0 0.25 0"/>
<feBlend mode="normal" in2="BackgroundImageFix" result="effect1_dropShadow_56_593"/>
<feBlend mode="normal" in="SourceGraphic" in2="effect1_dropShadow_56_593" result="shape"/>
</filter>
</defs>
</svg>
