<svg width="88" height="88" viewBox="0 0 88 88" fill="none" xmlns="http://www.w3.org/2000/svg">
<path d="M41.8002 33H71.1335C69.4835 28.7833 66.9633 25.1619 63.5728 22.1357C60.1824 19.1094 56.2859 16.9864 51.8835 15.7667L41.8002 33ZM33.3668 40.3333L48.0335 15.0333C47.3613 14.9111 46.6891 14.8194 46.0168 14.7583C45.3446 14.6972 44.6724 14.6667 44.0002 14.6667C39.9668 14.6667 36.2085 15.4306 32.7252 16.9583C29.2418 18.4861 26.1557 20.5333 23.4668 23.1L33.3668 40.3333ZM15.5835 51.3333H35.5668L20.9002 26.0333C18.9446 28.5389 17.4168 31.3048 16.3168 34.331C15.2168 37.3572 14.6668 40.5802 14.6668 44C14.6668 45.2833 14.7438 46.5214 14.8978 47.7143C15.0518 48.9072 15.2804 50.1136 15.5835 51.3333ZM36.1168 72.2333L46.0168 55H16.8668C18.5168 59.2167 21.0383 62.8381 24.4312 65.8643C27.8241 68.8906 31.7193 71.0136 36.1168 72.2333ZM44.0002 73.3333C48.0335 73.3333 51.7918 72.5694 55.2752 71.0417C58.7585 69.5139 61.8446 67.4667 64.5335 64.9L54.6335 47.6667L39.9668 72.9667C40.639 73.0889 41.2966 73.1806 41.9395 73.2417C42.5824 73.3028 43.2693 73.3333 44.0002 73.3333ZM67.1002 61.9667C69.0557 59.4611 70.5835 56.6964 71.6835 53.6727C72.7835 50.6489 73.3335 47.4247 73.3335 44C73.3335 42.7167 73.2577 41.4798 73.1062 40.2893C72.9546 39.0989 72.7248 37.8913 72.4168 36.6667H52.4335L67.1002 61.9667ZM44.0002 80.6667C38.9891 80.6667 34.2529 79.7036 29.7918 77.7773C25.3307 75.8511 21.4355 73.2233 18.1062 69.894C14.7768 66.5647 12.1491 62.6694 10.2228 58.2083C8.29661 53.7472 7.3335 49.0111 7.3335 44C7.3335 38.9278 8.29661 34.177 10.2228 29.7477C12.1491 25.3183 14.7768 21.4378 18.1062 18.106C21.4355 14.7742 25.3307 12.1464 29.7918 10.2227C34.2529 8.29889 38.9891 7.33578 44.0002 7.33333C49.0724 7.33333 53.8244 8.29644 58.2562 10.2227C62.6879 12.1489 66.5673 14.7767 69.8942 18.106C73.2211 21.4353 75.8488 25.3159 77.7775 29.7477C79.7062 34.1794 80.6693 38.9302 80.6668 44C80.6668 49.0111 79.7037 53.7472 77.7775 58.2083C75.8513 62.6694 73.2235 66.5659 69.8942 69.8977C66.5648 73.2294 62.6843 75.8572 58.2525 77.781C53.8207 79.7048 49.0699 80.6667 44.0002 80.6667Z" fill="white"/>
</svg>
