<svg width="88" height="88" viewBox="0 0 88 88" fill="none" xmlns="http://www.w3.org/2000/svg">
<g id="akar-icons:edit">
<g id="Group">
<path id="Vector" d="M60.408 19.8293L68.1703 27.5917M65.3983 12.991L44.3993 33.99C43.3143 35.0735 42.5744 36.4539 42.2727 37.9573L40.333 47.6667L50.0423 45.7233C51.5457 45.4227 52.9243 44.6857 54.0097 43.6003L75.0087 22.6013C75.6397 21.9703 76.1403 21.2212 76.4818 20.3967C76.8233 19.5722 76.999 18.6886 76.999 17.7962C76.999 16.9038 76.8233 16.0201 76.4818 15.1956C76.1403 14.3712 75.6397 13.622 75.0087 12.991C74.3777 12.36 73.6285 11.8594 72.804 11.5179C71.9796 11.1764 71.0959 11.0006 70.2035 11.0006C69.3111 11.0006 68.4274 11.1764 67.603 11.5179C66.7785 11.8594 66.0294 12.36 65.3983 12.991Z" stroke="white" stroke-width="7.33333" stroke-linecap="round" stroke-linejoin="round"/>
<path id="Vector_2" d="M69.6665 55V66C69.6665 67.9449 68.8939 69.8102 67.5186 71.1854C66.1434 72.5607 64.2781 73.3333 62.3332 73.3333H21.9998C20.0549 73.3333 18.1897 72.5607 16.8144 71.1854C15.4391 69.8102 14.6665 67.9449 14.6665 66V25.6667C14.6665 23.7217 15.4391 21.8565 16.8144 20.4812C18.1897 19.1059 20.0549 18.3333 21.9998 18.3333H32.9998" stroke="white" stroke-width="7.33333" stroke-linecap="round" stroke-linejoin="round"/>
</g>
</g>
</svg>
