<svg width="88" height="88" viewBox="0 0 88 88" fill="none" xmlns="http://www.w3.org/2000/svg">
<g id="fluent:people-28-regular">
<path id="Vector" d="M29.8571 15.7143C27.9998 15.7143 26.1607 16.0801 24.4448 16.7908C22.7289 17.5016 21.1698 18.5433 19.8566 19.8566C18.5433 21.1699 17.5015 22.729 16.7908 24.4449C16.08 26.1608 15.7142 27.9999 15.7142 29.8571C15.7142 31.7144 16.08 33.5535 16.7908 35.2694C17.5015 36.9853 18.5433 38.5444 19.8566 39.8577C21.1698 41.1709 22.7289 42.2127 24.4448 42.9234C26.1607 43.6342 27.9998 44 29.8571 44C33.608 44 37.2053 42.51 39.8576 39.8577C42.5099 37.2054 43.9999 33.6081 43.9999 29.8571C43.9999 26.1062 42.5099 22.5089 39.8576 19.8566C37.2053 17.2043 33.608 15.7143 29.8571 15.7143ZM20.4285 29.8571C20.4285 28.619 20.6724 27.3929 21.1462 26.249C21.62 25.1051 22.3145 24.0657 23.1901 23.1901C24.0656 22.3146 25.105 21.6201 26.2489 21.1463C27.3928 20.6724 28.6189 20.4286 29.8571 20.4286C31.0953 20.4286 32.3213 20.6724 33.4652 21.1463C34.6092 21.6201 35.6486 22.3146 36.5241 23.1901C37.3996 24.0657 38.0941 25.1051 38.5679 26.249C39.0418 27.3929 39.2856 28.619 39.2856 29.8571C39.2856 32.3578 38.2923 34.756 36.5241 36.5242C34.7559 38.2924 32.3577 39.2857 29.8571 39.2857C27.3565 39.2857 24.9583 38.2924 23.1901 36.5242C21.4219 34.756 20.4285 32.3578 20.4285 29.8571ZM62.8571 22C59.9397 22 57.1418 23.1589 55.0789 25.2218C53.016 27.2847 51.8571 30.0826 51.8571 33C51.8571 35.9174 53.016 38.7153 55.0789 40.7782C57.1418 42.8411 59.9397 44 62.8571 44C65.7745 44 68.5723 42.8411 70.6352 40.7782C72.6982 38.7153 73.8571 35.9174 73.8571 33C73.8571 30.0826 72.6982 27.2847 70.6352 25.2218C68.5723 23.1589 65.7745 22 62.8571 22ZM56.5714 33C56.5714 31.3329 57.2336 29.7341 58.4124 28.5553C59.5912 27.3765 61.19 26.7143 62.8571 26.7143C64.5241 26.7143 66.1229 27.3765 67.3017 28.5553C68.4805 29.7341 69.1428 31.3329 69.1428 33C69.1428 34.6671 68.4805 36.2659 67.3017 37.4447C66.1229 38.6235 64.5241 39.2857 62.8571 39.2857C61.19 39.2857 59.5912 38.6235 58.4124 37.4447C57.2336 36.2659 56.5714 34.6671 56.5714 33ZM6.28564 57.3571C6.28564 55.4817 7.03067 53.683 8.35682 52.3569C9.68297 51.0307 11.4816 50.2857 13.3571 50.2857H46.3571C48.2325 50.2857 50.0312 51.0307 51.3573 52.3569C52.6835 53.683 53.4285 55.4817 53.4285 57.3571V59.026C53.4261 59.2804 53.4083 59.5344 53.3751 59.7866C53.3043 60.4349 53.1888 61.0776 53.0294 61.71C52.5088 63.7735 51.5825 65.7126 50.3045 67.4143C47.1176 71.6666 41.0394 75.4286 29.8571 75.4286C18.6748 75.4286 12.5965 71.6666 9.40964 67.4143C8.1328 65.7124 7.20758 63.7732 6.68793 61.71C6.48225 60.8885 6.35077 60.0502 6.29507 59.2051L6.28564 59.026V57.3571ZM10.9999 58.9129V58.9694L11.0282 59.2837C11.0596 59.5791 11.1225 60.0223 11.2608 60.566C11.6272 62.0197 12.2789 63.3861 13.1779 64.5857C15.2962 67.4049 19.8251 70.7143 29.8571 70.7143C39.8891 70.7143 44.4179 67.4049 46.5331 64.5857C47.6331 63.1211 48.1799 61.6566 48.4502 60.566C48.5827 60.0423 48.67 59.5081 48.7111 58.9694L48.7142 58.9129V57.3571C48.7142 56.732 48.4659 56.1324 48.0238 55.6904C47.5818 55.2483 46.9822 55 46.3571 55H13.3571C12.7319 55 12.1324 55.2483 11.6903 55.6904C11.2483 56.1324 10.9999 56.732 10.9999 57.3571V58.9129ZM53.7428 67.9486C56.1722 68.6934 59.1705 69.1429 62.8508 69.1429C71.5565 69.1429 76.4216 66.6411 79.0648 63.624C80.12 62.4289 80.9028 61.0187 81.3591 59.4911C81.5374 58.8738 81.6522 58.2398 81.7016 57.5991L81.7079 57.4514V57.3571C81.7079 55.4817 80.9629 53.683 79.6368 52.3569C78.3106 51.0307 76.512 50.2857 74.6365 50.2857H53.7239C54.9622 51.5774 55.8674 53.196 56.2948 55H74.6396C75.2594 54.9999 75.8542 55.244 76.2954 55.6792C76.7365 56.1145 76.9885 56.706 76.9968 57.3257L76.9811 57.4703C76.9497 57.7073 76.9003 57.9416 76.8334 58.1711C76.5682 59.0399 76.1178 59.8409 75.5134 60.5189C74.0331 62.216 70.6514 64.4286 62.8508 64.4286C59.8934 64.4286 57.5708 64.1111 55.7448 63.6209C55.2633 65.1423 54.5906 66.5965 53.7428 67.9486Z" fill="white"/>
</g>
</svg>
