<svg width="88" height="88" viewBox="0 0 88 88" fill="none" xmlns="http://www.w3.org/2000/svg">
<g id="hugeicons:setup-02">
<g id="Group">
<path id="Vector" d="M62.4433 48.9427C64.427 48.0297 65.4207 47.575 65.7103 47.1203C66 46.6693 66 45.947 66 44.5097V43.4903C66 42.0493 66 41.3307 65.7103 40.8797C65.4207 40.425 64.427 39.9703 62.4433 39.0573C59.499 37.7007 57.607 34.7417 57.7097 31.6397C57.7867 29.271 57.827 28.0867 57.5667 27.6393C57.31 27.1883 56.6867 26.8473 55.4473 26.1653L54.263 25.5163C53.053 24.8563 52.4517 24.5263 51.9383 24.552C51.425 24.574 50.545 25.168 48.796 26.356C47.3758 27.3012 45.7078 27.8054 44.0018 27.8054C42.2958 27.8054 40.6279 27.3012 39.2077 26.356C37.455 25.168 36.5823 24.574 36.0653 24.5483C35.552 24.5263 34.947 24.8563 33.7407 25.5163L32.5563 26.1653C31.3133 26.8473 30.6937 27.1883 30.437 27.6357C30.1803 28.0867 30.217 29.271 30.2903 31.6397C30.393 34.7417 28.501 37.7043 25.5603 39.0573C23.573 39.9703 22.5793 40.425 22.2897 40.8797C22 41.3307 22 42.053 22 43.4903V44.5097C22 45.9507 22 46.673 22.2897 47.1203C22.5793 47.575 23.573 48.0297 25.5567 48.9427C28.501 50.2993 30.393 53.2583 30.2903 56.3603C30.2133 58.729 30.173 59.9133 30.4333 60.3607C30.69 60.8117 31.3133 61.1527 32.5563 61.8347L33.737 62.4837C34.947 63.1437 35.5483 63.4737 36.0617 63.4517C36.575 63.4297 37.455 62.832 39.204 61.644C40.625 60.6973 42.2943 60.1921 44.0018 60.1921C45.7093 60.1921 47.3787 60.6973 48.7997 61.644C50.5487 62.832 51.425 63.426 51.942 63.448C52.4553 63.4737 53.0603 63.1437 54.2667 62.4837L55.4473 61.8347C56.694 61.1527 57.3173 60.8117 57.574 60.3607C57.8307 59.9133 57.7903 58.729 57.7133 56.3603C57.6107 53.2583 59.499 50.2957 62.4433 48.9427Z" stroke="white" stroke-width="5.5" stroke-linecap="round" stroke-linejoin="round"/>
<path id="Vector_2" d="M44.0002 50.4167C47.544 50.4167 50.4168 47.5438 50.4168 44C50.4168 40.4562 47.544 37.5833 44.0002 37.5833C40.4563 37.5833 37.5835 40.4562 37.5835 44C37.5835 47.5438 40.4563 50.4167 44.0002 50.4167Z" stroke="white" stroke-width="5.5" stroke-linecap="round" stroke-linejoin="round"/>
<path id="Vector_3" d="M69.6668 7.33333V17.8163C62.8196 11.0874 53.6003 7.32195 44.0002 7.33333C23.7492 7.33333 7.3335 23.749 7.3335 44C7.33021 49.0467 8.36877 54.0398 10.3842 58.6667M18.3335 80.6667V70.1837C25.1807 76.9126 34.4 80.6781 44.0002 80.6667C64.2512 80.6667 80.6668 64.251 80.6668 44C80.6701 38.9533 79.6316 33.9602 77.6162 29.3333" stroke="white" stroke-width="5.5" stroke-linecap="round" stroke-linejoin="round"/>
</g>
</g>
</svg>
